<svg xmlns="http://www.w3.org/2000/svg" version="1.1" xmlns:xlink="http://www.w3.org/1999/xlink" viewBox="0 0 200 200"><rect width="200" height="200" fill="url('#gradient')"></rect><defs><linearGradient id="gradient" gradientTransform="rotate(65 0.5 0.5)"><stop offset="0%" stop-color="#2b328a"></stop><stop offset="100%" stop-color="#f4f0e8"></stop></linearGradient></defs><g><g fill="#2c3448" transform="matrix(5.62962962962963,0,0,5.62962962962963,5.168185769407842,140.0260422847889)" stroke="#27354b" stroke-width="0.7"><path d="M9.98 0L9.15-2.66L4.45-2.66L3.63 0L-0.03 0L5.19-14.22L8.41-14.22L13.66 0L9.98 0ZM6.80-10.23L5.27-5.30L8.33-5.30L6.80-10.23ZM18.13-14.22L18.13-2.64L24.09-2.64L24.09 0L14.70 0L14.70-14.22L18.13-14.22ZM25.67-6.68L27.90-9.34L24.72-10.21L25.35-12.06L28.47-10.78L28.22-14.22L30.31-14.22L30.06-10.71L33.09-11.96L33.72-10.10L30.50-9.22L32.64-6.63L30.95-5.48L29.16-8.35L27.36-5.58L25.67-6.68Z"></path></g></g></svg>